<?xml version="1.0" encoding="UTF-8" standalone="no"?>
<!DOCTYPE svg PUBLIC "-//W3C//DTD SVG 1.1//EN"
 "http://www.w3.org/Graphics/SVG/1.1/DTD/svg11.dtd">
<!-- Generated by graphviz version 2.40.1 (20161225.0304)
 -->
<!-- Pages: 1 -->
<svg width="869pt" height="959pt"
 viewBox="0.00 0.00 869.00 958.66" xmlns="http://www.w3.org/2000/svg" xmlns:xlink="http://www.w3.org/1999/xlink">
<g id="graph0" class="graph" transform="scale(1 1) rotate(0) translate(4 954.6641)">
<polygon fill="#ffffff" stroke="transparent" points="-4,4 -4,-954.6641 865,-954.6641 865,4 -4,4"/>
<g id="cluster_jessejesse.com_top" class="cluster">
<title>cluster_jessejesse.com</title>
<polygon fill="none" stroke="#000000" stroke-width=".5" points="8,-8 8,-314.3371 853,-314.3371 853,-8 8,-8"/>
<text text-anchor="start" x="20.5" y="-36.4" font-family="Times,serif" font-size="12.00" fill="#000000">jessejesse.com</text>
<text text-anchor="start" x="20.5" y="-19" font-family="Times,serif" font-size="10.00" fill="#000000">(2024&#45;01&#45;12 09:51:39 UTC)</text>
</g>
<g id="cluster_._top" class="cluster">
<title>cluster_.</title>
<polygon fill="none" stroke="#000000" stroke-width=".5" points="449,-647.5006 449,-942.6641 613,-942.6641 613,-647.5006 449,-647.5006"/>
<text text-anchor="start" x="461.5" y="-675.9006" font-family="Times,serif" font-size="12.00" fill="#000000">.</text>
<text text-anchor="start" x="461.5" y="-658.5006" font-family="Times,serif" font-size="10.00" fill="#000000">(2024&#45;01&#45;12 05:15:51 UTC)</text>
</g>
<g id="cluster_com_top" class="cluster">
<title>cluster_com</title>
<polygon fill="none" stroke="#000000" stroke-width=".5" points="369,-337.3371 369,-624.5006 653,-624.5006 653,-337.3371 369,-337.3371"/>
<text text-anchor="start" x="381.5" y="-365.7371" font-family="Times,serif" font-size="12.00" fill="#000000">com</text>
<text text-anchor="start" x="381.5" y="-348.3371" font-family="Times,serif" font-size="10.00" fill="#000000">(2024&#45;01&#45;12 07:41:31 UTC)</text>
</g>
<!-- cluster_jessejesse.com_top -->
<!-- cluster_com_bottom -->
<!-- cluster_jessejesse.com_top&#45;&gt;cluster_com_bottom -->
<g id="del&#45;jessejesse.com|com" class="edge">
<title>cluster_jessejesse.com_top&#45;&gt;cluster_com_bottom</title>
<path fill="none" stroke="#0a879a" stroke-width="5" d="M396.5946,-316.0034C394.3434,-322.2351 391.7228,-330.1223 390,-337.3371"/>
<polygon fill="#0a879a" stroke="#0a879a" stroke-width="5" points="397.4719,-325.2509 397.2909,-314.3371 389.3983,-321.8771 397.4719,-325.2509"/>
</g>
<!-- cluster_jessejesse.com_bottom -->
<!-- RRset&#45;10|jessejesse.com|TXT -->
<g id="RRset&#45;10|jessejesse.com|TXT" class="node">
<title>RRset&#45;10|jessejesse.com|TXT</title>
<path fill="#ffffff" stroke="#0a879a" stroke-width="1.5" d="M129.5,-123.6C129.5,-123.6 28.5,-123.6 28.5,-123.6 22.5,-123.6 16.5,-117.6 16.5,-111.6 16.5,-111.6 16.5,-99.6 16.5,-99.6 16.5,-93.6 22.5,-87.6 28.5,-87.6 28.5,-87.6 129.5,-87.6 129.5,-87.6 135.5,-87.6 141.5,-93.6 141.5,-99.6 141.5,-99.6 141.5,-111.6 141.5,-111.6 141.5,-117.6 135.5,-123.6 129.5,-123.6"/>
<text text-anchor="start" x="24.5" y="-102.5" font-family="Helvetica,sans-Serif" font-size="12.00" fill="#000000">jessejesse.com/TXT</text>
</g>
<!-- cluster_jessejesse.com_bottom&#45;&gt;RRset&#45;10|jessejesse.com|TXT -->
<!-- RRset&#45;11|jessejesse.com|A -->
<g id="RRset&#45;11|jessejesse.com|A" class="node">
<title>RRset&#45;11|jessejesse.com|A</title>
<path fill="#ffffff" stroke="#0a879a" stroke-width="1.5" d="M258,-123.6C258,-123.6 172,-123.6 172,-123.6 166,-123.6 160,-117.6 160,-111.6 160,-111.6 160,-99.6 160,-99.6 160,-93.6 166,-87.6 172,-87.6 172,-87.6 258,-87.6 258,-87.6 264,-87.6 270,-93.6 270,-99.6 270,-99.6 270,-111.6 270,-111.6 270,-117.6 264,-123.6 258,-123.6"/>
<text text-anchor="start" x="168" y="-102.5" font-family="Helvetica,sans-Serif" font-size="12.00" fill="#000000">jessejesse.com/A</text>
</g>
<!-- cluster_jessejesse.com_bottom&#45;&gt;RRset&#45;11|jessejesse.com|A -->
<!-- RRset&#45;12|jessejesse.com|MX -->
<g id="RRset&#45;12|jessejesse.com|MX" class="node">
<title>RRset&#45;12|jessejesse.com|MX</title>
<path fill="#ffffff" stroke="#0a879a" stroke-width="1.5" d="M396,-123.6C396,-123.6 300,-123.6 300,-123.6 294,-123.6 288,-117.6 288,-111.6 288,-111.6 288,-99.6 288,-99.6 288,-93.6 294,-87.6 300,-87.6 300,-87.6 396,-87.6 396,-87.6 402,-87.6 408,-93.6 408,-99.6 408,-99.6 408,-111.6 408,-111.6 408,-117.6 402,-123.6 396,-123.6"/>
<text text-anchor="start" x="296" y="-102.5" font-family="Helvetica,sans-Serif" font-size="12.00" fill="#000000">jessejesse.com/MX</text>
</g>
<!-- cluster_jessejesse.com_bottom&#45;&gt;RRset&#45;12|jessejesse.com|MX -->
<!-- RRset&#45;13|jessejesse.com|NS -->
<g id="RRset&#45;13|jessejesse.com|NS" class="node">
<title>RRset&#45;13|jessejesse.com|NS</title>
<path fill="#ffffff" stroke="#0a879a" stroke-width="1.5" d="M533.5,-123.6C533.5,-123.6 438.5,-123.6 438.5,-123.6 432.5,-123.6 426.5,-117.6 426.5,-111.6 426.5,-111.6 426.5,-99.6 426.5,-99.6 426.5,-93.6 432.5,-87.6 438.5,-87.6 438.5,-87.6 533.5,-87.6 533.5,-87.6 539.5,-87.6 545.5,-93.6 545.5,-99.6 545.5,-99.6 545.5,-111.6 545.5,-111.6 545.5,-117.6 539.5,-123.6 533.5,-123.6"/>
<text text-anchor="start" x="434.5" y="-102.5" font-family="Helvetica,sans-Serif" font-size="12.00" fill="#000000">jessejesse.com/NS</text>
</g>
<!-- cluster_jessejesse.com_bottom&#45;&gt;RRset&#45;13|jessejesse.com|NS -->
<!-- RRset&#45;14|jessejesse.com|AAAA -->
<g id="RRset&#45;14|jessejesse.com|AAAA" class="node">
<title>RRset&#45;14|jessejesse.com|AAAA</title>
<path fill="#ffffff" stroke="#0a879a" stroke-width="1.5" d="M686.5,-123.6C686.5,-123.6 575.5,-123.6 575.5,-123.6 569.5,-123.6 563.5,-117.6 563.5,-111.6 563.5,-111.6 563.5,-99.6 563.5,-99.6 563.5,-93.6 569.5,-87.6 575.5,-87.6 575.5,-87.6 686.5,-87.6 686.5,-87.6 692.5,-87.6 698.5,-93.6 698.5,-99.6 698.5,-99.6 698.5,-111.6 698.5,-111.6 698.5,-117.6 692.5,-123.6 686.5,-123.6"/>
<text text-anchor="start" x="571.5" y="-102.5" font-family="Helvetica,sans-Serif" font-size="12.00" fill="#000000">jessejesse.com/AAAA</text>
</g>
<!-- cluster_jessejesse.com_bottom&#45;&gt;RRset&#45;14|jessejesse.com|AAAA -->
<!-- RRset&#45;15|jessejesse.com|SOA -->
<g id="RRset&#45;15|jessejesse.com|SOA" class="node">
<title>RRset&#45;15|jessejesse.com|SOA</title>
<path fill="#ffffff" stroke="#0a879a" stroke-width="1.5" d="M833,-123.6C833,-123.6 729,-123.6 729,-123.6 723,-123.6 717,-117.6 717,-111.6 717,-111.6 717,-99.6 717,-99.6 717,-93.6 723,-87.6 729,-87.6 729,-87.6 833,-87.6 833,-87.6 839,-87.6 845,-93.6 845,-99.6 845,-99.6 845,-111.6 845,-111.6 845,-117.6 839,-123.6 833,-123.6"/>
<text text-anchor="start" x="725" y="-102.5" font-family="Helvetica,sans-Serif" font-size="12.00" fill="#000000">jessejesse.com/SOA</text>
</g>
<!-- cluster_jessejesse.com_bottom&#45;&gt;RRset&#45;15|jessejesse.com|SOA -->
<!-- DNSKEY&#45;0|jessejesse.com|13|34505 -->
<g id="DNSKEY&#45;0|jessejesse.com|13|34505" class="node">
<title>DNSKEY&#45;0|jessejesse.com|13|34505</title>
<ellipse fill="#ffffff" stroke="#0a879a" stroke-width="1.5" cx="417" cy="-173.8843" rx="64.1938" ry="28.0702"/>
<text text-anchor="start" x="391" y="-181.2843" font-family="Helvetica,sans-Serif" font-size="12.00" fill="#000000">DNSKEY</text>
<text text-anchor="start" x="379.5" y="-170.8843" font-family="Times,serif" font-size="10.00" fill="#000000">alg=13, id=34505</text>
<text text-anchor="start" x="400" y="-160.8843" font-family="Times,serif" font-size="10.00" fill="#000000">512 bits</text>
</g>
<!-- DNSKEY&#45;1|jessejesse.com|13|2371 -->
<g id="DNSKEY&#45;1|jessejesse.com|13|2371" class="node">
<title>DNSKEY&#45;1|jessejesse.com|13|2371</title>
<ellipse fill="#d3d3d3" stroke="#0a879a" stroke-width="1.5" cx="417" cy="-252.4528" rx="60.623" ry="28.0702"/>
<text text-anchor="start" x="391" y="-259.8528" font-family="Helvetica,sans-Serif" font-size="12.00" fill="#000000">DNSKEY</text>
<text text-anchor="start" x="382" y="-249.4528" font-family="Times,serif" font-size="10.00" fill="#000000">alg=13, id=2371</text>
<text text-anchor="start" x="400" y="-239.4528" font-family="Times,serif" font-size="10.00" fill="#000000">512 bits</text>
</g>
<!-- DNSKEY&#45;0|jessejesse.com|13|34505&#45;&gt;DNSKEY&#45;1|jessejesse.com|13|2371 -->
<g id="RRSIG&#45;DNSKEY&#45;0|jessejesse.com|13|34505|DNSKEY&#45;1|jessejesse.com|13|2371|0a879a|solid" class="edge">
<title>DNSKEY&#45;0|jessejesse.com|13|34505&#45;&gt;DNSKEY&#45;1|jessejesse.com|13|2371</title>
<path fill="none" stroke="#0a879a" stroke-width="1.5" d="M417,-212.4983C417,-216.4185 417,-220.3476 417,-224.1294"/>
<polygon fill="#0a879a" stroke="#0a879a" stroke-width="1.5" points="420.5001,-212.2493 417,-202.2493 413.5001,-212.2494 420.5001,-212.2493"/>
</g>
<!-- DNSKEY&#45;1|jessejesse.com|13|2371&#45;&gt;cluster_jessejesse.com_top -->
<!-- DNSKEY&#45;1|jessejesse.com|13|2371&#45;&gt;DNSKEY&#45;1|jessejesse.com|13|2371 -->
<g id="RRSIG&#45;DNSKEY&#45;1|jessejesse.com|13|2371|DNSKEY&#45;1|jessejesse.com|13|2371|0a879a|solid" class="edge">
<title>DNSKEY&#45;1|jessejesse.com|13|2371&#45;&gt;DNSKEY&#45;1|jessejesse.com|13|2371</title>
<path fill="none" stroke="#0a879a" stroke-width="1.5" d="M484.3958,-244.4041C491.3578,-245.9851 495.8112,-248.668 495.8112,-252.4528 495.8112,-257.8356 486.8032,-260.9896 474.382,-261.9148"/>
<polygon fill="#0a879a" stroke="#0a879a" stroke-width="1.5" points="484.773,-240.9228 474.382,-242.9908 483.7947,-247.8541 484.773,-240.9228"/>
</g>
<!-- DS&#45;1|jessejesse.com|13|2371|2 -->
<g id="DS&#45;1|jessejesse.com|13|2371|2" class="node">
<title>DS&#45;1|jessejesse.com|13|2371|2</title>
<ellipse fill="#ffffff" stroke="#0a879a" stroke-width="1.5" cx="447" cy="-412.5503" rx="48.1667" ry="21.4286"/>
<text text-anchor="start" x="438" y="-414.9503" font-family="Helvetica,sans-Serif" font-size="12.00" fill="#000000">DS</text>
<text text-anchor="start" x="421" y="-404.5503" font-family="Times,serif" font-size="10.00" fill="#000000">digest alg=2</text>
</g>
<!-- DNSKEY&#45;1|jessejesse.com|13|2371&#45;&gt;DS&#45;1|jessejesse.com|13|2371|2 -->
<g id="digest&#45;DNSKEY&#45;1|jessejesse.com|13|2371|DS&#45;1|jessejesse.com|13|2371|2|0a879a|solid" class="edge">
<title>DNSKEY&#45;1|jessejesse.com|13|2371&#45;&gt;DS&#45;1|jessejesse.com|13|2371|2</title>
<path fill="none" stroke="#0a879a" stroke-width="1.5" d="M424.1998,-290.8751C430.0938,-322.3287 438.2138,-365.6622 443.0046,-391.2285"/>
<polygon fill="#0a879a" stroke="#0a879a" stroke-width="1.5" points="427.5763,-289.8908 422.2943,-280.7065 420.6961,-291.1801 427.5763,-289.8908"/>
</g>
<!-- RRset&#45;10|jessejesse.com|TXT&#45;&gt;DNSKEY&#45;0|jessejesse.com|13|34505 -->
<g id="RRSIG&#45;RRset&#45;10|jessejesse.com|TXT|DNSKEY&#45;0|jessejesse.com|13|34505|0a879a|solid" class="edge">
<title>RRset&#45;10|jessejesse.com|TXT&#45;&gt;DNSKEY&#45;0|jessejesse.com|13|34505</title>
<path fill="none" stroke="#0a879a" stroke-width="1.5" d="M151.5769,-123.664C227.9879,-140.2495 305.0155,-154.3974 356.8446,-163.5423"/>
<polygon fill="#0a879a" stroke="#0a879a" stroke-width="1.5" points="152.2947,-120.2384 141.778,-121.5228 150.8003,-127.077 152.2947,-120.2384"/>
</g>
<!-- RRset&#45;11|jessejesse.com|A&#45;&gt;DNSKEY&#45;0|jessejesse.com|13|34505 -->
<g id="RRSIG&#45;RRset&#45;11|jessejesse.com|A|DNSKEY&#45;0|jessejesse.com|13|34505|0a879a|solid" class="edge">
<title>RRset&#45;11|jessejesse.com|A&#45;&gt;DNSKEY&#45;0|jessejesse.com|13|34505</title>
<path fill="none" stroke="#0a879a" stroke-width="1.5" d="M278.107,-126.9328C306.3216,-136.4704 339.1503,-147.5679 365.8055,-156.5784"/>
<polygon fill="#0a879a" stroke="#0a879a" stroke-width="1.5" points="278.9316,-123.517 268.3374,-123.6302 276.6899,-130.1483 278.9316,-123.517"/>
</g>
<!-- RRset&#45;12|jessejesse.com|MX&#45;&gt;DNSKEY&#45;0|jessejesse.com|13|34505 -->
<g id="RRSIG&#45;RRset&#45;12|jessejesse.com|MX|DNSKEY&#45;0|jessejesse.com|13|34505|0a879a|solid" class="edge">
<title>RRset&#45;12|jessejesse.com|MX&#45;&gt;DNSKEY&#45;0|jessejesse.com|13|34505</title>
<path fill="none" stroke="#0a879a" stroke-width="1.5" d="M373.766,-131.0987C379.289,-136.5645 385.1318,-142.3466 390.6757,-147.833"/>
<polygon fill="#0a879a" stroke="#0a879a" stroke-width="1.5" points="376.0605,-128.4453 366.4907,-123.8989 371.1367,-133.4208 376.0605,-128.4453"/>
</g>
<!-- RRset&#45;13|jessejesse.com|NS&#45;&gt;DNSKEY&#45;0|jessejesse.com|13|34505 -->
<g id="RRSIG&#45;RRset&#45;13|jessejesse.com|NS|DNSKEY&#45;0|jessejesse.com|13|34505|0a879a|solid" class="edge">
<title>RRset&#45;13|jessejesse.com|NS&#45;&gt;DNSKEY&#45;0|jessejesse.com|13|34505</title>
<path fill="none" stroke="#0a879a" stroke-width="1.5" d="M460.234,-131.0987C454.711,-136.5645 448.8682,-142.3466 443.3243,-147.833"/>
<polygon fill="#0a879a" stroke="#0a879a" stroke-width="1.5" points="462.8633,-133.4208 467.5093,-123.8989 457.9395,-128.4453 462.8633,-133.4208"/>
</g>
<!-- RRset&#45;14|jessejesse.com|AAAA&#45;&gt;DNSKEY&#45;0|jessejesse.com|13|34505 -->
<g id="RRSIG&#45;RRset&#45;14|jessejesse.com|AAAA|DNSKEY&#45;0|jessejesse.com|13|34505|0a879a|solid" class="edge">
<title>RRset&#45;14|jessejesse.com|AAAA&#45;&gt;DNSKEY&#45;0|jessejesse.com|13|34505</title>
<path fill="none" stroke="#0a879a" stroke-width="1.5" d="M564.7368,-126.7436C534.0678,-136.5296 498.1502,-147.9904 469.4097,-157.1611"/>
<polygon fill="#0a879a" stroke="#0a879a" stroke-width="1.5" points="566.0313,-130.0045 574.4941,-123.6302 563.9033,-123.3358 566.0313,-130.0045"/>
</g>
<!-- RRset&#45;15|jessejesse.com|SOA&#45;&gt;DNSKEY&#45;0|jessejesse.com|13|34505 -->
<g id="RRSIG&#45;RRset&#45;15|jessejesse.com|SOA|DNSKEY&#45;0|jessejesse.com|13|34505|0a879a|solid" class="edge">
<title>RRset&#45;15|jessejesse.com|SOA&#45;&gt;DNSKEY&#45;0|jessejesse.com|13|34505</title>
<path fill="none" stroke="#0a879a" stroke-width="1.5" d="M707.1533,-123.7058C622.1871,-141.2724 534.8415,-155.7135 477.9886,-164.6308"/>
<polygon fill="#0a879a" stroke="#0a879a" stroke-width="1.5" points="707.889,-127.1277 716.9645,-121.661 706.4607,-120.275 707.889,-127.1277"/>
</g>
<!-- cluster_._top -->
<!-- cluster_._bottom -->
<!-- DNSKEY&#45;5|.|8|30903 -->
<g id="DNSKEY&#45;5|.|8|30903" class="node">
<title>DNSKEY&#45;5|.|8|30903</title>
<ellipse fill="#ffffff" stroke="#0a879a" stroke-width="1.5" cx="524" cy="-794.2113" rx="60.623" ry="28.0702"/>
<text text-anchor="start" x="498" y="-801.6113" font-family="Helvetica,sans-Serif" font-size="12.00" fill="#000000">DNSKEY</text>
<text text-anchor="start" x="489" y="-791.2113" font-family="Times,serif" font-size="10.00" fill="#000000">alg=8, id=30903</text>
<text text-anchor="start" x="504.5" y="-781.2113" font-family="Times,serif" font-size="10.00" fill="#000000">2048 bits</text>
</g>
<!-- DNSKEY&#45;6|.|8|20326 -->
<g id="DNSKEY&#45;6|.|8|20326" class="node">
<title>DNSKEY&#45;6|.|8|20326</title>
<ellipse fill="#d3d3d3" stroke="#0a879a" stroke-width="1.5" cx="522" cy="-876.7798" rx="60.6345" ry="28.0965"/>
<ellipse fill="none" stroke="#0a879a" stroke-width="1.5" cx="522" cy="-876.7798" rx="64.6229" ry="32.07"/>
<text text-anchor="start" x="496" y="-884.1798" font-family="Helvetica,sans-Serif" font-size="12.00" fill="#000000">DNSKEY</text>
<text text-anchor="start" x="487" y="-873.7798" font-family="Times,serif" font-size="10.00" fill="#000000">alg=8, id=20326</text>
<text text-anchor="start" x="502.5" y="-863.7798" font-family="Times,serif" font-size="10.00" fill="#000000">2048 bits</text>
</g>
<!-- DNSKEY&#45;5|.|8|30903&#45;&gt;DNSKEY&#45;6|.|8|20326 -->
<g id="RRSIG&#45;DNSKEY&#45;5|.|8|30903|DNSKEY&#45;6|.|8|20326|0a879a|solid" class="edge">
<title>DNSKEY&#45;5|.|8|30903&#45;&gt;DNSKEY&#45;6|.|8|20326</title>
<path fill="none" stroke="#0a879a" stroke-width="1.5" d="M523.0669,-832.7329C522.9729,-836.6156 522.878,-840.531 522.7857,-844.3409"/>
<polygon fill="#0a879a" stroke="#0a879a" stroke-width="1.5" points="526.5684,-832.7085 523.3117,-822.6267 519.5705,-832.5389 526.5684,-832.7085"/>
</g>
<!-- DNSKEY&#45;6|.|8|20326&#45;&gt;cluster_._top -->
<!-- DNSKEY&#45;6|.|8|20326&#45;&gt;DNSKEY&#45;6|.|8|20326 -->
<g id="RRSIG&#45;DNSKEY&#45;6|.|8|20326|DNSKEY&#45;6|.|8|20326|0a879a|solid" class="edge">
<title>DNSKEY&#45;6|.|8|20326&#45;&gt;DNSKEY&#45;6|.|8|20326</title>
<path fill="none" stroke="#0a879a" stroke-width="1.5" d="M593.6332,-868.3098C600.4782,-870.0343 604.8112,-872.8577 604.8112,-876.7798 604.8112,-882.3579 596.0469,-885.7135 583.7563,-886.8466"/>
<polygon fill="#0a879a" stroke="#0a879a" stroke-width="1.5" points="594.1867,-864.8539 583.7563,-866.713 593.0695,-871.7642 594.1867,-864.8539"/>
</g>
<!-- DS&#45;0|com|13|19718|2 -->
<g id="DS&#45;0|com|13|19718|2" class="node">
<title>DS&#45;0|com|13|19718|2</title>
<ellipse fill="#ffffff" stroke="#0a879a" stroke-width="1.5" cx="527" cy="-722.7138" rx="48.1667" ry="21.4286"/>
<text text-anchor="start" x="518" y="-725.1138" font-family="Helvetica,sans-Serif" font-size="12.00" fill="#000000">DS</text>
<text text-anchor="start" x="501" y="-714.7138" font-family="Times,serif" font-size="10.00" fill="#000000">digest alg=2</text>
</g>
<!-- DS&#45;0|com|13|19718|2&#45;&gt;DNSKEY&#45;5|.|8|30903 -->
<g id="RRSIG&#45;DS&#45;0|com|13|19718|2|DNSKEY&#45;5|.|8|30903|0a879a|solid" class="edge">
<title>DS&#45;0|com|13|19718|2&#45;&gt;DNSKEY&#45;5|.|8|30903</title>
<path fill="none" stroke="#0a879a" stroke-width="1.5" d="M525.6794,-754.187C525.5159,-758.0825 525.3496,-762.0467 525.1883,-765.891"/>
<polygon fill="#0a879a" stroke="#0a879a" stroke-width="1.5" points="529.1775,-754.3034 526.0999,-744.1654 522.1837,-754.0098 529.1775,-754.3034"/>
</g>
<!-- cluster_com_top -->
<!-- cluster_com_top&#45;&gt;cluster_._bottom -->
<g id="del&#45;com|." class="edge">
<title>cluster_com_top&#45;&gt;cluster_._bottom</title>
<path fill="none" stroke="#0a879a" stroke-width="5" d="M479.1086,-625.5199C475.9463,-631.7738 472.2472,-639.8887 470,-647.5006"/>
<polygon fill="#0a879a" stroke="#0a879a" stroke-width="5" points="476.688,-634.9 480.0047,-624.5006 470.1161,-629.1227 476.688,-634.9"/>
</g>
<!-- DNSKEY&#45;2|com|13|4534 -->
<g id="DNSKEY&#45;2|com|13|4534" class="node">
<title>DNSKEY&#45;2|com|13|4534</title>
<ellipse fill="#ffffff" stroke="#0a879a" stroke-width="1.5" cx="584" cy="-484.0478" rx="60.623" ry="28.0702"/>
<text text-anchor="start" x="558" y="-491.4478" font-family="Helvetica,sans-Serif" font-size="12.00" fill="#000000">DNSKEY</text>
<text text-anchor="start" x="549" y="-481.0478" font-family="Times,serif" font-size="10.00" fill="#000000">alg=13, id=4534</text>
<text text-anchor="start" x="567" y="-471.0478" font-family="Times,serif" font-size="10.00" fill="#000000">512 bits</text>
</g>
<!-- DNSKEY&#45;3|com|13|19718 -->
<g id="DNSKEY&#45;3|com|13|19718" class="node">
<title>DNSKEY&#45;3|com|13|19718</title>
<ellipse fill="#d3d3d3" stroke="#0a879a" stroke-width="1.5" cx="502" cy="-562.6163" rx="64.1938" ry="28.0702"/>
<text text-anchor="start" x="476" y="-570.0163" font-family="Helvetica,sans-Serif" font-size="12.00" fill="#000000">DNSKEY</text>
<text text-anchor="start" x="464.5" y="-559.6163" font-family="Times,serif" font-size="10.00" fill="#000000">alg=13, id=19718</text>
<text text-anchor="start" x="485" y="-549.6163" font-family="Times,serif" font-size="10.00" fill="#000000">512 bits</text>
</g>
<!-- DNSKEY&#45;2|com|13|4534&#45;&gt;DNSKEY&#45;3|com|13|19718 -->
<g id="RRSIG&#45;DNSKEY&#45;2|com|13|4534|DNSKEY&#45;3|com|13|19718|0a879a|solid" class="edge">
<title>DNSKEY&#45;2|com|13|4534&#45;&gt;DNSKEY&#45;3|com|13|19718</title>
<path fill="none" stroke="#0a879a" stroke-width="1.5" d="M549.7462,-516.8682C542.7903,-523.533 535.5681,-530.4529 528.9102,-536.8322"/>
<polygon fill="#0a879a" stroke="#0a879a" stroke-width="1.5" points="552.351,-519.2196 557.1501,-509.774 547.5081,-514.1653 552.351,-519.2196"/>
</g>
<!-- DNSKEY&#45;3|com|13|19718&#45;&gt;DS&#45;0|com|13|19718|2 -->
<g id="digest&#45;DNSKEY&#45;3|com|13|19718|DS&#45;0|com|13|19718|2|0a879a|solid" class="edge">
<title>DNSKEY&#45;3|com|13|19718&#45;&gt;DS&#45;0|com|13|19718|2</title>
<path fill="none" stroke="#0a879a" stroke-width="1.5" d="M507.9998,-601.0386C512.9115,-632.4922 519.6782,-675.8257 523.6705,-701.392"/>
<polygon fill="#0a879a" stroke="#0a879a" stroke-width="1.5" points="511.413,-600.2102 506.412,-590.87 504.4968,-601.2903 511.413,-600.2102"/>
</g>
<!-- DNSKEY&#45;3|com|13|19718&#45;&gt;cluster_com_top -->
<!-- DNSKEY&#45;3|com|13|19718&#45;&gt;DNSKEY&#45;3|com|13|19718 -->
<g id="RRSIG&#45;DNSKEY&#45;3|com|13|19718|DNSKEY&#45;3|com|13|19718|0a879a|solid" class="edge">
<title>DNSKEY&#45;3|com|13|19718&#45;&gt;DNSKEY&#45;3|com|13|19718</title>
<path fill="none" stroke="#0a879a" stroke-width="1.5" d="M572.8281,-554.6583C579.8675,-556.2503 584.3467,-558.9029 584.3467,-562.6163 584.3467,-567.8976 575.2864,-571.0333 562.687,-572.0235"/>
<polygon fill="#0a879a" stroke="#0a879a" stroke-width="1.5" points="573.0816,-551.159 562.687,-553.2091 572.0912,-558.0886 573.0816,-551.159"/>
</g>
<!-- DNSKEY&#45;4|com|13|46171 -->
<g id="DNSKEY&#45;4|com|13|46171" class="node">
<title>DNSKEY&#45;4|com|13|46171</title>
<ellipse fill="#ffffff" stroke="#0a879a" stroke-width="1.5" cx="441" cy="-484.0478" rx="64.1938" ry="28.0702"/>
<text text-anchor="start" x="415" y="-491.4478" font-family="Helvetica,sans-Serif" font-size="12.00" fill="#000000">DNSKEY</text>
<text text-anchor="start" x="403.5" y="-481.0478" font-family="Times,serif" font-size="10.00" fill="#000000">alg=13, id=46171</text>
<text text-anchor="start" x="424" y="-471.0478" font-family="Times,serif" font-size="10.00" fill="#000000">512 bits</text>
</g>
<!-- DNSKEY&#45;4|com|13|46171&#45;&gt;DNSKEY&#45;3|com|13|19718 -->
<g id="RRSIG&#45;DNSKEY&#45;4|com|13|46171|DNSKEY&#45;3|com|13|19718|0a879a|solid" class="edge">
<title>DNSKEY&#45;4|com|13|46171&#45;&gt;DNSKEY&#45;3|com|13|19718</title>
<path fill="none" stroke="#0a879a" stroke-width="1.5" d="M468.2459,-519.1407C472.5857,-524.7305 477.0145,-530.4347 481.1752,-535.7938"/>
<polygon fill="#0a879a" stroke="#0a879a" stroke-width="1.5" points="470.89,-516.839 461.9927,-511.0866 465.3608,-521.1319 470.89,-516.839"/>
</g>
<!-- DS&#45;1|jessejesse.com|13|2371|2&#45;&gt;DNSKEY&#45;4|com|13|46171 -->
<g id="RRSIG&#45;DS&#45;1|jessejesse.com|13|2371|2|DNSKEY&#45;4|com|13|46171|0a879a|solid" class="edge">
<title>DS&#45;1|jessejesse.com|13|2371|2&#45;&gt;DNSKEY&#45;4|com|13|46171</title>
<path fill="none" stroke="#0a879a" stroke-width="1.5" d="M444.3588,-444.0235C444.0319,-447.919 443.6992,-451.8832 443.3766,-455.7275"/>
<polygon fill="#0a879a" stroke="#0a879a" stroke-width="1.5" points="447.8512,-444.2596 445.1998,-434.0019 440.8757,-443.6741 447.8512,-444.2596"/>
</g>
</g>
</svg>
