 <svg  version="1.0" xmlns="http://www.w3.org/2000/svg"  width="900.000000pt" height="900.000000pt" viewBox="0 0 900.000000 900.000000"  preserveAspectRatio="xMidYMid meet">  <g transform="translate(0.000000,900.000000) scale(0.100000,-0.100000)" fill="#000000" stroke="none"> <path d="M0 5663 l0 -3337 33 31 c123 118 177 169 215 201 24 21 60 53 81 72 139 127 244 210 263 210 5 0 27 12 50 28 22 15 50 32 61 38 18 11 17 12 -12 19 -34 7 -38 16 -16 35 17 14 19 43 5 71 -8 14 -6 27 6 50 8 17 18 61 21 97 4 62 8 70 49 114 24 26 44 52 44 59 0 16 49 94 87 139 18 20 33 48 33 62 0 17 11 32 37 49 21 13 39 33 41 44 3 11 24 41 48 67 24 26 44 52 44 58 0 5 19 20 43 33 68 34 135 82 157 110 11 14 49 40 83 56 64 32 152 89 176 114 7 8 25 28 40 45 28 31 103 58 197 71 28 4 66 17 86 29 58 36 60 35 133 -57 22 -27 48 -50 58 -51 10 0 32 -14 49 -30 24 -25 29 -36 24 -58 -12 -47 -4 -102 17 -117 7 -5 22 -26 31 -47 23 -48 60 -63 138 -54 33 3 67 11 75 18 17 14 67 13 104 -3 35 -14 76 -95 91 -177 21 -123 60 -280 73 -299 7 -10 18 -39 25 -63 14 -52 49 -94 102 -121 66 -34 74 -70 23 -100 -38 -23 -44 -43 -19 -70 17 -19 35 -78 38 -124 1 -22 10 -35 36 -52 19 -12 47 -31 62 -43 25 -19 36 -21 100 -15 40 4 88 11 106 17 24 7 37 7 48 -3 28 -23 71 34 103 136 16 50 36 105 44 122 9 17 21 73 27 124 10 83 27 158 61 279 6 19 14 51 18 70 5 19 13 46 19 60 10 22 33 177 33 220 0 8 -4 34 -9 57 -6 28 -5 106 3 224 13 197 8 248 -28 287 -19 21 -22 34 -20 95 2 72 2 72 -30 88 -28 14 -31 20 -29 53 4 45 -11 66 -50 66 -16 0 -31 6 -34 15 -4 8 -14 15 -24 15 -13 0 -21 13 -30 50 -12 50 -26 63 -36 35 -9 -24 -33 -18 -40 10 -5 21 -10 24 -28 19 -11 -4 -27 -15 -34 -25 -16 -23 -38 -25 -46 -4 -8 23 -25 18 -38 -10 -6 -14 -25 -32 -41 -40 -27 -13 -31 -13 -42 2 -8 10 -30 18 -61 20 -27 2 -62 4 -79 6 -25 2 -32 -3 -46 -33 -8 -19 -22 -68 -29 -108 -12 -66 -15 -72 -34 -66 -12 3 -30 14 -41 24 -11 10 -39 27 -62 39 l-43 21 0 -25 c0 -16 -6 -25 -16 -25 -17 0 -94 71 -94 86 0 5 -13 18 -28 28 -16 10 -33 27 -38 36 -5 9 -26 49 -47 89 -20 39 -41 71 -46 71 -5 0 -14 20 -21 45 -13 48 -7 192 10 209 5 5 6 30 3 57 -4 34 0 61 12 91 38 93 55 186 58 317 2 80 6 95 22 107 43 29 45 34 38 77 -3 23 -12 47 -18 52 -18 15 -45 58 -45 70 0 6 14 27 30 45 17 19 33 50 36 71 5 31 10 36 33 37 29 1 104 28 135 48 10 7 24 10 32 7 8 -3 26 16 48 50 19 30 42 57 51 60 8 4 21 19 27 34 16 38 66 86 105 102 50 20 95 116 64 135 -5 4 -2 29 7 59 8 28 17 86 18 127 4 98 10 119 38 131 22 10 23 16 20 78 -4 68 9 125 33 149 9 9 13 41 13 102 0 90 -12 121 -33 85 -9 -16 -12 -11 -24 31 -15 50 -43 273 -36 286 2 4 -5 13 -16 20 -14 10 -20 30 -24 85 -3 49 -12 84 -26 106 -12 19 -21 48 -21 64 0 30 -23 113 -40 145 -5 9 -13 68 -16 130 -5 81 -12 124 -26 151 -29 57 -116 272 -145 357 -30 87 -84 167 -119 176 -21 5 -74 60 -74 76 0 3 -16 29 -35 58 -19 29 -35 58 -35 66 0 12 -175 14 -1175 14 l-1175 0 0 -3337z m800 2264 c0 -18 -2 -19 -10 -7 -13 20 -13 43 0 35 6 -3 10 -16 10 -28z m994 -561 c11 -4 16 -12 12 -21 -4 -10 1 -15 14 -15 13 0 20 -7 20 -20 0 -25 25 -36 45 -20 9 8 15 8 15 2 0 -6 9 -14 21 -17 14 -5 19 -13 16 -25 -3 -12 0 -17 8 -14 12 5 43 -52 37 -70 -5 -15 20 -36 44 -36 25 0 44 -31 47 -75 0 -11 17 -49 36 -84 24 -44 36 -81 38 -114 2 -28 8 -56 14 -63 24 -29 -29 -14 -69 20 -47 39 -122 123 -122 136 0 5 -20 40 -45 77 -25 37 -45 71 -45 76 0 6 -11 25 -25 43 -14 18 -25 41 -25 52 0 11 -7 23 -16 26 -9 3 -14 12 -11 20 3 8 -3 22 -14 32 -11 10 -18 23 -15 30 3 7 -4 20 -15 30 -25 23 -27 58 -1 45 9 -5 25 -12 36 -15z"/> <path d="M2760 8988 c1 -20 30 -52 85 -93 112 -84 331 -288 371 -346 15 -22 32 -39 39 -39 12 0 36 -33 73 -100 7 -14 25 -40 40 -59 37 -46 119 -160 140 -194 37 -62 85 -119 106 -127 18 -6 31 -36 68 -147 26 -76 50 -155 54 -177 4 -26 21 -54 55 -89 42 -44 49 -58 55 -105 4 -32 25 -92 50 -146 46 -96 65 -126 81 -126 18 0 54 -48 76 -101 13 -30 36 -74 52 -99 16 -25 34 -61 41 -80 18 -48 17 -122 -1 -146 -18 -24 -20 -132 -3 -169 10 -22 17 -26 39 -21 24 5 27 2 32 -33 3 -28 16 -50 46 -80 22 -22 47 -38 54 -35 17 6 41 -22 54 -61 7 -19 16 -29 28 -28 9 0 30 -13 45 -30 l29 -32 45 25 c40 21 46 29 46 57 0 19 -7 60 -17 93 -12 46 -14 65 -5 84 6 14 8 40 5 59 -5 35 17 136 42 191 7 17 17 58 21 91 8 71 38 172 63 218 10 17 24 57 31 87 7 30 17 63 21 72 24 46 61 215 69 311 6 72 14 117 25 134 10 14 28 67 42 117 13 50 37 116 52 146 16 30 31 76 35 103 3 26 15 66 27 88 11 23 27 60 34 83 23 72 85 211 98 221 8 6 25 35 40 65 56 118 146 270 158 270 6 0 18 17 27 38 9 20 27 51 40 69 12 17 22 36 22 42 0 8 -368 11 -1315 11 -1045 0 -1315 -3 -1315 -12z"/> <path d="M5859 8942 c-9 -31 -27 -102 -38 -157 -12 -55 -28 -120 -36 -145 -8 -25 -19 -74 -25 -110 -6 -36 -15 -87 -20 -115 -29 -159 -34 -208 -40 -390 -5 -124 -14 -230 -24 -280 -10 -44 -19 -111 -21 -148 -4 -73 -12 -95 -22 -59 -8 32 -30 11 -38 -36 -3 -20 -7 -176 -9 -346 l-3 -308 33 -14 c19 -8 34 -21 34 -29 0 -24 49 -128 73 -153 16 -17 22 -39 25 -85 4 -70 20 -99 54 -102 18 -1 23 -8 25 -35 4 -48 20 -63 63 -56 25 4 45 0 68 -14 29 -18 32 -24 32 -69 0 -54 28 -101 60 -101 11 0 25 -14 37 -37 15 -32 26 -41 73 -55 30 -9 68 -20 83 -23 17 -3 31 -15 37 -29 5 -13 13 -27 18 -30 6 -3 10 -28 10 -56 1 -38 -3 -50 -14 -50 -9 0 -41 -12 -72 -26 -31 -14 -67 -27 -80 -29 -28 -3 -62 -38 -62 -64 0 -10 16 -38 36 -62 20 -24 49 -63 65 -86 18 -26 38 -43 49 -43 11 0 27 -11 36 -25 9 -13 23 -27 33 -30 9 -3 29 -29 44 -58 15 -28 39 -70 52 -92 14 -22 25 -48 25 -57 0 -10 8 -22 18 -27 27 -15 84 -133 90 -188 4 -37 13 -57 41 -88 20 -22 43 -55 50 -72 8 -19 21 -33 31 -33 22 0 45 -27 59 -71 8 -25 22 -40 46 -52 27 -13 37 -26 49 -66 8 -27 24 -63 35 -78 17 -25 18 -35 10 -83 -24 -134 -29 -168 -29 -198 0 -25 -5 -35 -25 -42 -14 -5 -29 -20 -34 -32 -5 -13 -21 -38 -35 -57 -14 -19 -29 -51 -32 -70 -4 -20 -12 -39 -18 -43 -20 -14 -70 -8 -115 12 -24 11 -51 20 -61 20 -21 0 -42 30 -59 83 -10 29 -18 37 -37 37 -14 0 -27 6 -30 14 -6 15 -39 11 -62 -7 -10 -8 -12 -2 -10 24 2 25 -1 34 -12 35 -8 0 -25 4 -38 8 -16 5 -31 2 -49 -10 -26 -16 -27 -16 -41 4 -19 29 -45 28 -73 -3 -31 -32 -39 -31 -39 4 0 39 -16 48 -31 19 -17 -32 -41 -48 -61 -42 -10 3 -18 0 -18 -6 0 -13 -60 -70 -73 -70 -5 0 -17 -10 -27 -22 -15 -19 -20 -20 -34 -9 -14 12 -19 11 -35 -3 -11 -10 -22 -33 -25 -51 -8 -41 -22 -53 -31 -26 -3 11 -19 24 -35 30 -28 9 -31 8 -45 -22 -19 -44 -37 -64 -60 -68 -15 -3 -21 -14 -23 -45 -2 -28 -11 -49 -28 -64 -16 -16 -24 -34 -24 -58 0 -19 -7 -60 -15 -93 -9 -32 -15 -71 -14 -86 1 -15 -6 -46 -16 -67 -16 -37 -16 -41 1 -78 16 -36 16 -41 2 -66 -26 -44 -31 -172 -14 -312 10 -85 12 -138 6 -164 -5 -25 -5 -57 1 -85 6 -25 12 -86 14 -136 1 -49 3 -100 4 -112 1 -13 7 -23 14 -23 6 0 23 -12 37 -26 23 -25 24 -27 5 -40 -10 -8 -22 -14 -26 -14 -14 0 -40 -98 -33 -124 9 -35 66 -69 117 -68 23 0 66 -5 95 -10 39 -7 57 -6 68 3 21 17 122 4 193 -25 47 -21 75 -25 142 -24 46 0 100 5 119 12 32 10 35 15 40 56 4 30 1 54 -10 73 -14 26 -13 31 6 65 20 38 20 38 0 53 -18 14 -18 19 -7 47 7 17 11 38 8 45 -5 13 47 42 105 61 13 4 16 12 12 34 -6 28 -5 29 48 37 50 8 75 8 193 5 28 -1 70 6 95 16 25 9 59 17 75 16 73 -1 194 -10 203 -16 19 -11 43 5 37 25 -5 15 -1 19 19 19 14 0 28 4 31 10 3 5 -34 52 -82 103 -84 89 -101 114 -158 237 -14 30 -36 75 -50 100 -13 25 -27 65 -31 90 -4 25 -18 67 -31 94 -21 42 -24 60 -21 125 3 65 8 83 33 121 18 26 47 53 68 63 21 10 40 24 44 33 10 27 41 36 66 19 22 -14 26 -14 50 5 34 27 42 25 65 -12 13 -23 34 -39 68 -51 27 -10 56 -23 64 -28 8 -5 28 -17 44 -27 16 -9 36 -26 45 -36 9 -11 33 -36 54 -57 20 -21 37 -45 37 -53 0 -9 12 -23 28 -33 15 -9 45 -34 67 -55 235 -225 281 -278 301 -349 10 -35 31 -75 55 -104 30 -37 39 -56 39 -85 0 -26 8 -48 24 -67 27 -32 53 -112 59 -184 3 -25 10 -56 16 -68 7 -12 9 -36 6 -55 -6 -30 -3 -36 34 -65 23 -18 41 -39 41 -47 0 -8 4 -14 9 -14 5 0 14 -21 20 -47 7 -27 19 -58 27 -71 12 -18 14 -38 9 -88 -5 -38 -3 -69 2 -77 10 -12 17 -46 32 -156 6 -45 4 -58 -10 -72 -30 -30 -40 -58 -34 -93 6 -31 5 -34 -26 -40 -30 -6 -137 23 -164 44 -5 5 -46 11 -91 15 -67 6 -83 5 -97 -9 -13 -13 -14 -22 -5 -47 8 -22 7 -38 -1 -57 -11 -22 -10 -28 5 -39 10 -7 22 -13 28 -13 6 0 5 -5 -2 -12 -22 -22 -13 -45 41 -106 113 -132 135 -159 225 -276 51 -66 111 -145 134 -174 22 -29 39 -55 36 -57 -3 -3 -25 16 -49 41 -24 25 -52 54 -62 63 -11 9 -29 30 -40 47 -23 32 -99 124 -130 156 -15 16 -16 22 -5 35 11 14 10 16 -14 9 -21 -5 -28 -3 -28 9 0 8 -7 15 -16 15 -11 0 -14 6 -9 20 5 16 2 20 -14 20 -12 0 -20 3 -19 8 2 4 -1 9 -7 11 -5 2 -26 14 -46 27 -43 26 -115 48 -136 40 -11 -5 -13 -15 -8 -46 4 -27 3 -46 -5 -55 -7 -8 -9 -22 -6 -32 9 -21 -10 -33 -54 -33 -19 0 -57 -13 -85 -28 -39 -21 -51 -34 -55 -57 -4 -22 -12 -31 -30 -35 -37 -9 -96 -37 -114 -56 -9 -9 -14 -24 -11 -34 6 -20 -13 -38 -51 -49 -42 -11 -39 -27 10 -56 25 -15 43 -31 40 -37 -7 -10 -30 -8 -132 13 -62 12 -62 12 -90 -14 -16 -15 -33 -27 -39 -27 -6 0 -13 -7 -17 -15 -4 -10 -20 -15 -51 -15 -51 0 -60 -17 -22 -43 44 -30 -10 -30 -142 2 -71 17 -140 31 -152 31 -13 0 -44 9 -68 20 l-44 21 -53 -22 c-42 -18 -54 -28 -59 -51 -4 -15 -17 -36 -31 -47 -20 -16 -23 -25 -20 -62 3 -24 2 -60 -1 -81 -5 -32 -10 -38 -52 -53 -107 -40 -161 -70 -161 -89 0 -10 -7 -24 -16 -31 -14 -10 -13 -15 14 -40 31 -29 33 -45 5 -45 -8 0 -28 -11 -45 -25 -19 -16 -42 -25 -64 -25 -44 0 -74 -15 -74 -38 -1 -9 -20 -30 -43 -45 -23 -15 -66 -45 -95 -66 -78 -56 -164 -75 -306 -66 -61 3 -118 6 -126 7 -8 0 -48 16 -88 35 -40 19 -109 47 -153 63 -45 16 -88 35 -98 43 -9 8 -24 17 -33 20 -9 3 -26 23 -37 45 -11 21 -41 54 -66 73 -26 19 -72 56 -103 82 -31 27 -90 69 -132 94 -41 25 -85 54 -97 66 -43 39 -43 41 155 242 83 84 400 370 464 417 40 30 56 64 39 81 -18 18 -146 -7 -191 -37 -44 -29 -257 -96 -307 -96 -67 0 -137 52 -177 132 -13 26 -31 46 -48 52 -28 10 -49 1 -178 -72 -61 -35 -65 -40 -71 -80 -3 -24 -13 -50 -22 -59 -15 -15 -21 -14 -76 15 -96 50 -378 153 -426 156 -42 2 -43 -21 -4 -89 24 -42 50 -70 98 -104 84 -60 131 -108 187 -192 25 -38 79 -103 121 -146 80 -82 127 -160 116 -190 -25 -68 -88 -97 -108 -50 -9 19 -19 22 -77 25 -82 4 -152 -16 -238 -66 -52 -30 -66 -43 -70 -67 -3 -17 -12 -30 -20 -31 -86 -4 -178 -34 -187 -61 -4 -11 24 -24 57 -28 8 -1 36 -7 63 -14 69 -19 62 -53 -20 -95 -39 -19 -209 -22 -259 -4 -32 11 -140 2 -185 -17 -13 -5 -20 5 -34 50 -15 47 -24 59 -54 74 -55 28 -81 31 -136 17 -61 -16 -96 -7 -134 33 -18 19 -39 31 -55 31 -39 0 -136 97 -136 137 0 40 -36 120 -60 133 -11 6 -24 28 -30 50 -6 21 -15 42 -21 46 -6 4 -8 20 -4 40 4 26 1 41 -14 61 -12 14 -21 39 -21 56 0 16 -9 45 -21 63 -11 18 -29 63 -39 99 -32 113 -75 164 -122 146 -24 -9 -158 -33 -287 -51 -41 -6 -80 -15 -85 -19 -6 -5 -39 -11 -73 -14 -52 -6 -63 -4 -63 8 0 8 8 15 19 15 10 0 25 7 32 16 7 9 23 20 36 25 13 5 23 12 23 17 0 20 -39 42 -83 48 -38 5 -53 2 -93 -20 -45 -25 -104 -35 -104 -17 0 5 9 28 20 52 11 24 20 49 20 55 0 6 -16 28 -35 50 -19 21 -35 44 -35 50 0 6 -11 21 -25 34 -14 13 -25 29 -25 36 0 21 -40 27 -59 10 -16 -15 -19 -15 -31 -1 -10 12 -16 13 -27 4 -20 -18 -29 -2 -16 31 6 17 9 39 6 50 -6 22 -50 50 -78 50 -22 0 -75 -27 -105 -55 -14 -12 -43 -35 -64 -51 -38 -28 -39 -28 -26 -5 7 14 32 45 54 70 94 102 103 126 57 136 -16 3 -32 13 -35 22 -5 13 -18 15 -83 9 -70 -7 -75 -6 -70 11 21 67 23 63 -22 63 -39 0 -42 2 -57 40 -9 22 -23 40 -30 40 -39 0 -144 -75 -144 -103 0 -19 -61 -79 -75 -74 -6 3 -28 -3 -48 -13 -51 -25 -48 -7 13 65 68 83 184 234 209 276 12 19 21 47 21 62 0 28 -1 29 -42 22 -24 -4 -66 -15 -95 -25 l-52 -17 5 60 c4 49 2 62 -13 72 -17 13 -17 14 0 20 9 4 17 13 17 20 0 7 6 18 14 24 7 6 14 22 14 36 0 23 -3 24 -52 18 -28 -3 -59 -10 -68 -14 -9 -5 -22 -9 -29 -9 -20 0 19 32 84 69 31 18 57 34 57 37 0 2 -23 15 -51 29 -46 24 -53 25 -87 13 -88 -31 -178 -104 -404 -330 l-178 -177 0 -1140 0 -1141 4500 0 4500 0 0 4500 0 4500 -1562 0 -1563 0 -16 -58z m1830 -27 c7 -4 9 -14 6 -23 -2 -10 -7 -31 -9 -47 -2 -17 -11 -48 -21 -70 -31 -70 -34 -79 -44 -120 -23 -95 -42 -133 -72 -144 -26 -9 -29 -15 -29 -52 0 -29 -10 -60 -30 -96 -16 -29 -30 -61 -30 -72 0 -11 -32 -83 -72 -162 -57 -112 -79 -146 -105 -161 -18 -11 -35 -28 -38 -38 -3 -10 -16 -25 -29 -34 -13 -8 -56 -72 -96 -143 -40 -70 -88 -152 -107 -181 -18 -29 -33 -57 -33 -63 0 -5 -30 -40 -67 -78 -38 -37 -81 -83 -97 -101 -17 -18 -47 -43 -67 -57 -26 -17 -48 -45 -70 -90 -19 -38 -46 -75 -68 -91 -64 -49 -105 -97 -161 -190 -35 -61 -60 -92 -72 -92 -12 0 -16 -5 -12 -17 4 -11 3 -14 -3 -7 -4 6 -15 13 -25 17 -13 5 -15 16 -10 69 4 35 5 110 4 168 -2 107 12 164 44 183 8 4 14 14 14 22 0 23 38 90 65 113 14 12 25 30 25 40 0 11 10 27 21 38 12 10 33 39 48 64 42 71 84 127 105 136 11 5 23 16 27 24 20 40 39 89 39 100 0 7 14 28 30 47 17 18 30 38 30 43 0 12 94 153 114 169 9 7 16 21 16 30 0 23 58 141 81 165 42 43 69 79 69 91 0 6 8 20 18 31 10 10 35 48 56 83 22 35 52 71 67 80 16 9 29 19 29 23 0 4 14 23 30 41 17 19 30 40 30 46 0 6 12 17 28 25 15 8 42 39 61 68 27 43 44 58 75 69 30 10 42 20 44 37 2 13 14 28 28 34 13 6 24 14 24 17 0 3 9 20 20 38 18 30 23 32 64 29 24 -2 49 -7 55 -11z m56 -843 c-10 -41 -54 -152 -80 -202 -64 -125 -79 -147 -111 -170 -28 -21 -34 -30 -30 -52 4 -20 1 -28 -9 -28 -9 0 -15 -10 -15 -24 0 -13 -7 -26 -15 -30 -8 -3 -15 -14 -15 -24 0 -10 -18 -38 -40 -61 -22 -23 -48 -54 -57 -69 -26 -41 -105 -133 -110 -128 -3 2 2 15 10 28 8 12 18 34 22 48 4 14 34 79 66 146 58 119 96 174 121 174 8 0 14 16 15 44 2 52 64 181 125 257 21 27 38 55 38 62 0 21 31 80 49 94 13 9 18 7 29 -14 8 -14 11 -36 7 -51z"/> <path d="M6395 2830 c3 -5 13 -10 21 -10 8 0 14 5 14 10 0 6 -9 10 -21 10 -11 0 -17 -4 -14 -10z"/> <path d="M7750 2011 c0 -17 43 -41 72 -41 41 0 44 19 4 35 -40 17 -76 20 -76 6z"/> </g> </svg> 